<svg xmlns="http://www.w3.org/2000/svg"><style>:root svg:not(:target){display:none}</style><svg fill="none" id="address" viewBox="0 0 13 16"><path fill-rule="evenodd" clip-rule="evenodd" d="M11.8 6.5c0 2.33-1.367 4.417-2.912 6.01A17.54 17.54 0 0 1 6.5 14.558a17.54 17.54 0 0 1-2.388-2.046C2.567 10.917 1.2 8.83 1.2 6.5a5.3 5.3 0 1 1 10.6 0Zm1.2 0c0 5.59-6.5 9.5-6.5 9.5S0 12.09 0 6.5a6.5 6.5 0 0 1 13 0Zm-4.2 0a2.3 2.3 0 1 1-4.6 0 2.3 2.3 0 0 1 4.6 0Zm1.2 0a3.5 3.5 0 1 1-7 0 3.5 3.5 0 0 1 7 0Z" fill="#7859CF"></path></svg><svg id="arrow-left" viewBox="0 0 10 10"><path fill-rule="evenodd" clip-rule="evenodd" d="M5.808 0 7 1.239 3.383 5 7 8.761 5.808 10 1 5l4.808-5Z"></path></svg><svg id="arrow-right" viewBox="0 0 10 10"><path fill-rule="evenodd" clip-rule="evenodd" d="M4.192 0 3 1.239 6.617 5 3 8.761 4.192 10 9 5 4.192 0Z"></path></svg><svg id="cart" viewBox="0 0 16 16"><path fill-rule="evenodd" clip-rule="evenodd" d="m5.66 3.875.234 2.792h4.213l.232-2.792a2.347 2.347 0 1 0-4.678 0Zm5.784 2.792.224-2.68a3.68 3.68 0 1 0-7.336 0l.224 2.68H0L.19 8l.816 5.71A2.667 2.667 0 0 0 3.646 16h8.708a2.667 2.667 0 0 0 2.64-2.29L15.81 8 16 6.667h-4.556ZM11.334 8h-.054l-.222 2.667h3.024L14.462 8h-3.129ZM9.941 8H6.058l.222 2.667h3.44L9.942 8ZM4.72 8H1.537l.381 2.667h3.024L4.72 8Zm1.893 6.667L6.391 12H9.61l-.222 2.667H6.613ZM10.947 12l-.222 2.667h1.629c.663 0 1.226-.488 1.32-1.145L13.89 12h-2.944Zm-5.894 0 .222 2.667H3.646a1.333 1.333 0 0 1-1.32-1.145L2.11 12h2.944Z"></path></svg><svg id="htmlacademy" viewBox="0 0 110 16"><path d="M1.542 3.6V12h1.415V8.52H7.41V12h1.415V3.6H7.41v3.648H2.958V3.6H1.54Zm8.496 0v1.272h2.652V12h1.416V4.872h2.664V3.6h-6.732Zm7.945 0V12h1.332V5.724l2.652 5.4h.924l2.652-5.4.012 6.276h1.308V3.6h-1.668l-2.76 5.58-2.772-5.58h-1.68Zm11.098 0V12h5.052v-1.284h-3.636V3.6H29.08ZM45.316 12h1.512l-3.672-8.4h-1.452L37.996 12h1.476l.804-1.896h4.236L45.316 12Zm-4.512-3.156 1.584-3.732 1.584 3.732h-3.168ZM52.047 7.5l.756-.888c-.588-.672-1.488-1.044-2.64-1.044-1.896 0-3.216 1.32-3.216 3.252 0 1.92 1.32 3.228 3.216 3.228 1.212 0 2.136-.432 2.712-1.188l-.768-.768c-.432.504-1.08.768-1.884.768-1.104 0-1.896-.828-1.896-2.04 0-1.212.792-2.04 1.896-2.04.768-.012 1.38.264 1.824.72Zm7.188 4.5-.012-4.188c-.012-1.404-.936-2.244-2.58-2.244-1.212 0-1.86.276-2.748.804l.564.96c.636-.432 1.272-.648 1.884-.648 1.008 0 1.524.48 1.524 1.284v.192h-1.932c-1.536.012-2.412.756-2.412 1.92 0 1.128.864 1.98 2.244 1.98.924 0 1.656-.276 2.112-.84V12h1.356Zm-3.18-1.032c-.768 0-1.236-.372-1.236-.948 0-.612.42-.852 1.32-.852h1.728v.588c-.072.696-.828 1.212-1.812 1.212Zm9.732-7.872V6.72c-.469-.744-1.237-1.164-2.269-1.164-1.8 0-3.035 1.308-3.035 3.228 0 1.944 1.224 3.276 3.06 3.276 1.02 0 1.788-.408 2.244-1.152V12h1.38V3.096h-1.38Zm-1.957 7.812c-1.163 0-1.956-.864-1.968-2.076.012-1.224.816-2.1 1.968-2.1 1.153 0 1.957.864 1.957 2.1 0 1.212-.805 2.076-1.957 2.076Zm8.06-5.34c-1.896.012-3.228 1.32-3.228 3.252 0 1.92 1.296 3.228 3.264 3.228 1.104 0 2.016-.396 2.64-1.08l-.732-.78a2.482 2.482 0 0 1-1.8.744c-1.008 0-1.764-.612-1.98-1.596h4.824c.168-2.304-.744-3.768-2.988-3.768Zm-1.86 2.76c.144-1.02.864-1.656 1.872-1.656 1.044 0 1.728.624 1.776 1.656H70.03Zm14.615-2.76c-1.164 0-2.016.468-2.424 1.536-.3-.972-1.08-1.536-2.22-1.536-1.056 0-1.872.384-2.316 1.284V5.616h-1.368V12h1.368V8.844c0-1.116.672-1.956 1.776-1.992.936 0 1.5.588 1.5 1.56V12h1.38V8.844c0-1.116.66-1.956 1.752-1.992.936 0 1.512.588 1.512 1.56V12h1.38V8.028c0-1.524-.876-2.46-2.34-2.46Zm6.508 7.308 2.904-7.26h-1.38l-1.776 4.836-1.908-4.836h-1.428l2.64 6.288-.216.48c-.216.48-.552.708-.972.708-.288 0-.528-.096-.828-.312l-.588 1.068c.444.372.9.54 1.476.54.96 0 1.68-.504 2.076-1.512ZM109.215 5.754 103.972 2.5v-.001h-.001L98.785 5.75V1.407L104 .83l5.215.576v4.347Zm-.004.576-2.085 1.293-3.141-1.967-.006.573 2.685 1.68-.463.288-2.216-1.388-.006.572 1.75 1.095-.413.291-.01.007-1.321-.82-.006.572.868.538-.884.558-5.167-3.233 5.175-3.275 5.24 3.216Zm.004 5.441L104 15.038l-5.215-3.267V7.025l5.193 3.255.008.59-3.562-2.233-.005.573 3.576 2.263.009.605-3.575-2.24-.005.573L104 12.675l3.606-2.272V7.957l1.609-1.011v4.825ZM104 0l-6 .662v11.58L104 16l6-3.759V.662L104 0Z"></path></svg><svg id="ok" viewBox="0 0 20 20"><path fill-rule="evenodd" clip-rule="evenodd" d="M1.4 1.4C0 2.812 0 5.074 0 9.6v.914c0 4.456 0 6.698 1.4 8.086C2.812 20 5.074 20 9.6 20h.913c4.457 0 6.699 0 8.087-1.4 1.4-1.412 1.4-3.674 1.4-8.2v-.913c0-4.457 0-6.699-1.4-8.087C17.188 0 14.926 0 10.4 0h-.914C5.03 0 2.788 0 1.4 1.4Zm8.62 8.797a3.034 3.034 0 0 0 3.028-3.028 3.038 3.038 0 0 0-6.075 0 3.038 3.038 0 0 0 3.046 3.028Zm0-4.28c.688 0 1.25.563 1.25 1.252 0 .689-.562 1.251-1.25 1.251-.69 0-1.252-.562-1.252-1.251-.018-.69.544-1.251 1.251-1.251Zm1.214 6.764a5.729 5.729 0 0 0 1.76-.725.883.883 0 0 0 .271-1.233.883.883 0 0 0-1.233-.272 3.85 3.85 0 0 1-4.08 0 .903.903 0 0 0-1.233.272.904.904 0 0 0 .308 1.215c.544.345 1.143.58 1.76.725L7.1 14.35a.886.886 0 0 0 0 1.251.861.861 0 0 0 .635.254.94.94 0 0 0 .634-.254l1.668-1.668 1.669 1.668a.887.887 0 0 0 1.251 0 .887.887 0 0 0 0-1.251l-1.723-1.668Z"></path></svg><svg fill="none" id="pagination-arrow" viewBox="0 0 10 10"><path fill-rule="evenodd" clip-rule="evenodd" d="M5.808 0 7 1.239 3.383 5 7 8.761 5.808 10 1 5l4.808-5Z" fill="#7859CF"></path></svg><svg fill="none" id="phone" viewBox="0 0 13 16"><path fill-rule="evenodd" clip-rule="evenodd" d="M1.478 1.49C.407 2.09-.173 3.236.046 4.32l.358 1.774c.926 3.123 2.5 5.769 4.825 8.109l1.405 1.188c.857.726 2.17.811 3.24.211l2.23-1.249c.873-.488 1.162-1.534.626-2.259l-1.935-2.613c-.516-.697-1.588-.812-2.366-.253l-1.375.988c-1.228-.88-2.008-2.19-2.179-3.662l1.57-.662c.887-.374 1.32-1.333.957-2.114L6.037.845C5.658.032 4.58-.247 3.707.241l-2.23 1.25Zm-.196 2.528c-.119-.59.197-1.216.782-1.543l2.23-1.25c.217-.121.487-.051.582.152L6.24 4.309c.091.196-.017.435-.239.529l-2.43 1.025.016.416c.082 2.126 1.212 4.025 3.068 5.157l.364.221 2.13-1.53c.194-.14.462-.11.591.064l1.935 2.613c.134.181.061.443-.157.565l-2.23 1.249c-.583.327-1.3.28-1.767-.115l-1.405-1.189C4.39 11.62 2.29 8.091 1.641 5.792l-.359-1.774Z" fill="#7859CF"></path></svg><svg id="pinterest" viewBox="0 0 22 22"><path d="M11 0C4.925 0 0 4.925 0 11c0 4.66 2.9 8.644 6.991 10.247-.096-.87-.183-2.21.038-3.16.2-.858 1.29-5.467 1.29-5.467s-.329-.659-.329-1.633c0-1.53.887-2.671 1.99-2.671.94 0 1.392.704 1.392 1.549 0 .944-.6 2.355-.91 3.662-.26 1.095.549 1.988 1.628 1.988 1.955 0 3.458-2.061 3.458-5.037 0-2.634-1.892-4.475-4.595-4.475-3.13 0-4.966 2.347-4.966 4.774 0 .945.364 1.959.818 2.51.09.109.103.204.076.315-.083.348-.269 1.095-.305 1.248-.048.201-.16.244-.368.147-1.374-.64-2.233-2.648-2.233-4.261 0-3.47 2.521-6.657 7.268-6.657 3.816 0 6.782 2.72 6.782 6.353 0 3.791-2.39 6.842-5.708 6.842-1.115 0-2.163-.58-2.522-1.263l-.685 2.615c-.248.955-.919 2.153-1.367 2.883C8.773 21.83 9.866 22 11 22c6.075 0 11-4.925 11-11S17.075 0 11 0Z"></path></svg><svg fill="none" id="slider-arrow" viewBox="0 0 11 20"><path fill-rule="evenodd" clip-rule="evenodd" d="M9.717 0 11 1.32 2.567 10 11 18.68 9.717 20 0 10 9.717 0Z" fill="#7859CF"></path></svg><svg id="user" viewBox="0 0 16 16"><path fill-rule="evenodd" clip-rule="evenodd" d="M10.667 4a2.667 2.667 0 1 1-5.334 0 2.667 2.667 0 0 1 5.334 0ZM12 4a4 4 0 1 1-8 0 4 4 0 0 1 8 0Zm-8.803 8.31C4.437 11.277 6.16 10.667 8 10.667s3.564.61 4.803 1.643c1.232 1.027 1.864 2.362 1.864 3.69H16c0-1.768-.843-3.464-2.343-4.714-1.5-1.25-3.535-1.953-5.657-1.953s-4.157.703-5.657 1.953S0 14.232 0 16h1.333c0-1.328.632-2.663 1.864-3.69Z"></path></svg><svg id="vk" viewBox="0 0 20 20"><path fill-rule="evenodd" clip-rule="evenodd" d="M1.406 1.406C0 2.812 0 5.074 0 9.6v.8c0 4.525 0 6.788 1.406 8.194C2.812 20 5.074 20 9.6 20h.8c4.525 0 6.788 0 8.194-1.406C20 17.188 20 14.925 20 10.4v-.8c0-4.526 0-6.788-1.406-8.194C17.188 0 14.925 0 10.4 0h-.8C5.074 0 2.812 0 1.406 1.406Zm1.969 4.677c.108 5.2 2.708 8.325 7.267 8.325h.258v-2.975c1.675.167 2.942 1.392 3.45 2.975h2.367c-.65-2.366-2.359-3.675-3.425-4.175 1.066-.616 2.566-2.116 2.925-4.15h-2.15c-.467 1.65-1.85 3.15-3.167 3.292V6.083H8.75v5.767c-1.333-.333-3.017-1.95-3.092-5.767H3.375Z"></path></svg></svg>