<svg width="21" height="16" fill="none" xmlns="http://www.w3.org/2000/svg"><path fill-rule="evenodd" clip-rule="evenodd" d="m14.174 13.522.003-.022h1.347l-.03.21a2.667 2.667 0 0 1-2.64 2.29H4.146a2.667 2.667 0 0 1-2.64-2.29L.69 8 .5 6.667h4.556l-.224-2.68A3.68 3.68 0 0 1 12.118 3h-1.37a2.348 2.348 0 0 0-4.587.875l.233 2.792H10V8H6.558l.222 2.667h3.44l.014-.167h1.338l-.014.167H13V12h-1.553l-.222 2.667h1.629c.663 0 1.226-.488 1.32-1.145ZM5.22 8H2.037l.381 2.667h3.024L5.22 8Zm1.893 6.667L6.891 12h3.218l-.222 2.667H7.113ZM5.553 12l.222 2.667H4.146a1.333 1.333 0 0 1-1.32-1.145L2.61 12h2.944ZM16.3 10V7.2h-2.8V5.8h2.8V3h1.4v2.8h2.8v1.4h-2.8V10h-1.4Z" fill="#fff"/></svg>