<svg width="110" height="16" viewBox="0 0 110 16" xmlns="http://www.w3.org/2000/svg">
<path d="M1.5415 3.6V12H2.9575V8.52H7.4095V12H8.8255V3.6H7.4095V7.248H2.9575V3.6H1.5415ZM10.0377 3.6V4.872H12.6897V12H14.1057V4.872H16.7697V3.6H10.0377ZM17.9829 3.6V12H19.3149V5.724L21.9669 11.124H22.8909L25.5429 5.724L25.5549 12H26.8629V3.6H25.1949L22.4349 9.18L19.6629 3.6H17.9829ZM29.0806 3.6V12H34.1326V10.716H30.4966V3.6H29.0806ZM45.3164 12H46.8284L43.1564 3.6H41.7044L37.9964 12H39.4724L40.2764 10.104H44.5124L45.3164 12ZM40.8044 8.844L42.3884 5.112L43.9724 8.844H40.8044ZM52.0473 7.5L52.8033 6.612C52.2153 5.94 51.3153 5.568 50.1633 5.568C48.2673 5.568 46.9473 6.888 46.9473 8.82C46.9473 10.74 48.2673 12.048 50.1633 12.048C51.3753 12.048 52.2993 11.616 52.8753 10.86L52.1073 10.092C51.6753 10.596 51.0273 10.86 50.2233 10.86C49.1193 10.86 48.3273 10.032 48.3273 8.82C48.3273 7.608 49.1193 6.78 50.2233 6.78C50.9913 6.768 51.6033 7.044 52.0473 7.5ZM59.2353 12L59.2233 7.812C59.2113 6.408 58.2873 5.568 56.6433 5.568C55.4313 5.568 54.7833 5.844 53.8953 6.372L54.4593 7.332C55.0953 6.9 55.7313 6.684 56.3433 6.684C57.3513 6.684 57.8673 7.164 57.8673 7.968V8.16H55.9353C54.3993 8.172 53.5233 8.916 53.5233 10.08C53.5233 11.208 54.3873 12.06 55.7673 12.06C56.6913 12.06 57.4233 11.784 57.8793 11.22V12H59.2353ZM56.0553 10.968C55.2873 10.968 54.8193 10.596 54.8193 10.02C54.8193 9.408 55.2393 9.168 56.1393 9.168H57.8673V9.756C57.7953 10.452 57.0393 10.968 56.0553 10.968ZM65.7865 3.096V6.72C65.3185 5.976 64.5505 5.556 63.5185 5.556C61.7185 5.556 60.4825 6.864 60.4825 8.784C60.4825 10.728 61.7065 12.06 63.5425 12.06C64.5625 12.06 65.3305 11.652 65.7865 10.908V12H67.1665V3.096H65.7865ZM63.8305 10.908C62.6665 10.908 61.8745 10.044 61.8625 8.832C61.8745 7.608 62.6785 6.732 63.8305 6.732C64.9825 6.732 65.7865 7.596 65.7865 8.832C65.7865 10.044 64.9825 10.908 63.8305 10.908ZM71.8902 5.568C69.9942 5.58 68.6622 6.888 68.6622 8.82C68.6622 10.74 69.9582 12.048 71.9262 12.048C73.0302 12.048 73.9422 11.652 74.5662 10.968L73.8342 10.188C73.3662 10.668 72.7302 10.932 72.0342 10.932C71.0262 10.932 70.2702 10.32 70.0542 9.336H74.8782C75.0462 7.032 74.1342 5.568 71.8902 5.568ZM70.0302 8.328C70.1742 7.308 70.8942 6.672 71.9022 6.672C72.9462 6.672 73.6302 7.296 73.6782 8.328H70.0302ZM84.6449 5.568C83.4809 5.568 82.6289 6.036 82.2209 7.104C81.9209 6.132 81.1409 5.568 80.0009 5.568C78.9449 5.568 78.1289 5.952 77.6849 6.852V5.616H76.3169V12H77.6849V8.844C77.6849 7.728 78.3569 6.888 79.4609 6.852C80.3969 6.852 80.9609 7.44 80.9609 8.412V12H82.3409V8.844C82.3409 7.728 83.0009 6.888 84.0929 6.852C85.0289 6.852 85.6049 7.44 85.6049 8.412V12H86.9849V8.028C86.9849 6.504 86.1089 5.568 84.6449 5.568ZM91.153 12.876L94.057 5.616H92.677L90.901 10.452L88.993 5.616H87.565L90.205 11.904L89.989 12.384C89.773 12.864 89.437 13.092 89.017 13.092C88.729 13.092 88.489 12.996 88.189 12.78L87.601 13.848C88.045 14.22 88.501 14.388 89.077 14.388C90.037 14.388 90.757 13.884 91.153 12.876Z"/>
<path d="M109.215 5.75392L103.972 2.49957V2.49875L103.971 2.49916L103.971 2.49875V2.49957L98.7849 5.75013V1.40658L104 0.830884L109.215 1.40658V5.75392ZM109.211 6.32987L107.126 7.62344L103.985 5.65607L103.979 6.22863L106.664 7.9096L106.201 8.19683L103.985 6.80853L103.979 7.3811L105.729 8.47648L105.316 8.76717L105.306 8.77351L103.985 7.95383L103.979 8.52631L104.847 9.06404L103.963 9.62244L98.7962 6.3886L103.971 3.1139V3.11448L109.211 6.32987ZM109.215 11.7713L104 15.0384L98.7849 11.7713V7.02542L103.978 10.2796L103.986 10.8693L100.424 8.63702L100.419 9.20959L103.995 11.4728L104.004 12.0782L100.429 9.83883L100.424 10.4113L104 12.6745L107.606 10.4026V7.95712L109.215 6.94552V11.7713ZM104 -3.17891e-07L98 0.662267V12.2411L104 16L110 12.2411V0.662267L104 -3.17891e-07Z"/>
</svg>
